<?xml version="1.0" standalone="no"?>
<!DOCTYPE svg PUBLIC "-//W3C//DTD SVG 20010904//EN"
 "http://www.w3.org/TR/2001/REC-SVG-20010904/DTD/svg10.dtd">
<svg version="1.0" xmlns="http://www.w3.org/2000/svg"
 width="96.000000pt" height="96.000000pt" viewBox="0 0 96.000000 96.000000"
 preserveAspectRatio="xMidYMid meet">

<g transform="translate(0.000000,96.000000) scale(0.100000,-0.100000)"
fill="#000000" stroke="none">
<path d="M284 858 c-25 -12 -44 -48 -44 -83 0 -22 -4 -25 -39 -25 -24 0 -48
-8 -65 -21 -25 -20 -26 -24 -26 -129 l0 -109 30 -23 c30 -22 30 -23 30 -119 0
-93 1 -98 26 -118 15 -12 32 -21 40 -21 7 0 26 -13 42 -30 24 -24 39 -30 71
-30 29 0 41 -4 41 -14 0 -31 30 -46 90 -46 60 0 90 15 90 46 0 10 12 14 41 14
32 0 47 6 71 30 16 17 35 30 42 30 8 0 25 9 40 21 25 20 26 25 26 118 0 96 0
97 30 119 l30 23 0 109 c0 105 -1 109 -26 129 -17 13 -41 21 -65 21 -35 0 -39
3 -39 25 0 36 -19 71 -47 84 -34 16 -133 14 -165 -3 -24 -13 -32 -13 -55 0
-32 16 -137 18 -169 2z m176 -37 c5 -11 10 -55 10 -97 0 -88 -14 -114 -62
-114 -15 0 -28 -5 -28 -11 0 -8 15 -10 45 -7 l45 6 0 -104 c0 -114 -9 -134
-61 -134 -19 0 -29 -5 -29 -15 0 -20 49 -20 78 1 20 14 24 14 44 0 29 -21 78
-21 78 -1 0 10 -10 15 -29 15 -52 0 -61 20 -61 134 l0 104 45 -6 c30 -3 45 -1
45 7 0 6 -12 11 -27 11 -49 0 -63 24 -63 112 0 113 4 118 98 118 47 0 83 -5
90 -12 17 -17 15 -83 -3 -98 -8 -7 -15 -25 -15 -41 0 -19 5 -29 15 -29 10 0
15 10 15 30 0 30 0 30 60 30 74 0 80 -9 80 -120 0 -111 -6 -120 -80 -120 -46
0 -60 -3 -60 -14 0 -10 13 -16 38 -18 l37 -3 3 -86 c3 -106 -7 -122 -77 -117
-42 3 -46 5 -49 31 -5 39 -22 33 -22 -8 0 -28 5 -38 25 -47 50 -22 23 -38 -65
-38 -60 0 -90 15 -90 46 0 8 -4 14 -10 14 -5 0 -10 -6 -10 -14 0 -31 -30 -46
-90 -46 -88 0 -115 16 -65 38 20 9 25 19 25 47 0 41 -17 47 -22 8 -3 -26 -7
-28 -49 -31 -70 -5 -80 11 -77 117 l3 86 38 3 c24 2 37 8 37 18 0 11 -14 14
-60 14 -74 0 -80 9 -80 120 0 111 6 120 80 120 60 0 60 0 60 -30 0 -20 5 -30
15 -30 10 0 15 10 15 29 0 16 -7 34 -15 41 -18 15 -20 81 -3 98 7 7 43 12 90
12 66 0 79 -3 88 -19z m53 -660 c47 -24 34 -41 -33 -41 -67 0 -78 14 -32 42
15 9 29 15 32 14 3 -1 17 -8 33 -15z"/>
</g>
</svg>
